<svg xmlns="http://www.w3.org/2000/svg" viewBox="0 0 128 128" fill="none"><rect width="128" height="128" rx="32" fill="#fff"/><rect x="12" y="12" width="104" height="104" rx="28" fill="#f5f3ff"/><path d="M64 24c16.6 0 30 13.4 30 30v10c0 16.6-13.4 30-30 30S34 80.6 34 64V54c0-16.6 13.4-30 30-30Z" fill="#7c3aed" opacity=".12"/><path d="M64 26l20 12v24c0 18-10.7 30-20 36-9.3-6-20-18-20-36V38l20-12Z" fill="#5b21b6"/><path d="M64 37l8 13h-6v12h-4V50h-6l8-13Z" fill="#ef4444"/><path d="M44 83c7 6.7 13.7 11.4 20 15 6.3-3.6 13-8.3 20-15H44Z" fill="#10b981"/><path d="M49 55h30v24H49z" fill="#fff"/><path d="M64 55v24" stroke="#5b21b6" stroke-width="2"/><path d="M49 55l15 9 15-9" stroke="#5b21b6" stroke-width="2"/><text x="64" y="112" text-anchor="middle" font-family="Arial, sans-serif" font-size="12" font-weight="700" fill="#5b21b6">UCI LIRA</text></svg>