<svg xmlns="http://www.w3.org/2000/svg" viewBox="0 0 1200 900" fill="none"><rect width="1200" height="900" rx="40" fill="#F8FAFC"/><circle cx="170" cy="110" r="180" fill="#ec4899" opacity=".14"/><circle cx="1060" cy="790" r="240" fill="#f59e0b" opacity=".14"/><rect x="54" y="54" width="1092" height="792" rx="34" fill="white" stroke="#E2E8F0"/><rect x="100" y="118" width="420" height="250" rx="26" fill="#ec4899" opacity=".14"/><rect x="560" y="118" width="540" height="250" rx="26" fill="#f59e0b" opacity=".12"/><rect x="100" y="404" width="1000" height="340" rx="28" fill="#7c3aed" opacity=".08"/><rect x="140" y="442" width="280" height="180" rx="20" fill="#ec4899" opacity=".18"/><rect x="450" y="442" width="280" height="180" rx="20" fill="#f59e0b" opacity=".16"/><rect x="760" y="442" width="300" height="180" rx="20" fill="#7c3aed" opacity=".16"/><path d="M160 680h840" stroke="#CBD5E1" stroke-width="10" stroke-linecap="round"/><path d="M210 306h200" stroke="#ec4899" stroke-width="16" stroke-linecap="round"/><path d="M210 338h148" stroke="#94A3B8" stroke-width="12" stroke-linecap="round"/><path d="M612 210h320" stroke="#f59e0b" stroke-width="16" stroke-linecap="round"/><path d="M612 242h260" stroke="#94A3B8" stroke-width="12" stroke-linecap="round"/><text x="100" y="808" fill="#0F172A" font-family="Arial, sans-serif" font-size="42" font-weight="700">Diploma in Midwifery Direct</text><text x="100" y="852" fill="#475569" font-family="Arial, sans-serif" font-size="24">Professional midwifery training</text></svg>